ffmpeg started on 2025-06-06 at 18:43:39
Report written to "D:\Convert\FFMetrics\reports\ssim_report-6.txt"
Log level: 32
Command line:
ffmpeg -hide_banner -nostdin -i "G:\\\xc0\xed\xe8\xec\xe5\\\xce\xed\xe3\xee\xe8\xed\xe3\xe8\\!_36_\xce\xf1\xe5\xed\xfc_2024\\DreamCast\\\xcf\xf3\xed\xe8\xf0\xf3 - \xec\xe8\xeb\xe0\xff \xf1\xeb\xe8\xe7\xfc\\[DC] Puniru wa Kawaii Slime - 03_Telegram_HEVC.mkv" -i "G:\\\xc0\xed\xe8\xec\xe5\\\xce\xed\xe3\xee\xe8\xed\xe3\xe8\\!_36_\xce\xf1\xe5\xed\xfc_2024\\DreamCast\\\xcf\xf3\xed\xe8\xf0\xf3 - \xec\xe8\xeb\xe0\xff \xf1\xeb\xe8\xe7\xfc\\[DC] Puniru wa Kawaii Slime - 03_Telegram.mp4" -lavfi "[0:v]settb=AVTB,setpts=PTS-STARTPTS,format=pix_fmts=yuv420p10,fps=24000/1001,scale=1920:1080:flags=bicubic[main];[1:v]settb=AVTB,setpts=PTS-STARTPTS,format=pix_fmts=yuv420p,fps=24000/1001,scale=1920:1080:flags=bicubic[ref];[main][ref]ssim=eof_action=endall:stats_file='D\\:/Convert/FFMetrics/logs/ssim_logfile-6.txt'" -f null -
Input #0, matroska,webm, from 'G:\Аниме\Онгоинги\!_36_Осень_2024\DreamCast\Пуниру - милая слизь\[DC] Puniru wa Kawaii Slime - 03_Telegram_HEVC.mkv':
  Metadata:
    COMPATIBLE_BRANDS: isomiso2avc1mp41
    MAJOR_BRAND     : isom
    MINOR_VERSION   : 512
    ENCODER         : Lavf61.7.100
  Duration: 00:23:56.67, start: -0.021000, bitrate: 1311 kb/s
  Stream #0:0: Video: hevc (Main 10), yuv420p10le(tv, bt709, progressive), 1920x1080 [SAR 1:1 DAR 16:9], 23.98 fps, 23.98 tbr, 1k tbn (default)
      Metadata:
        HANDLER_NAME    : VideoHandler
        VENDOR_ID       : [0][0][0][0]
        ENCODER         : Lavc61.19.100 libx265
        BPS             : 1113742
        DURATION        : 00:23:56.518708333
        NUMBER_OF_FRAMES: 34442
        NUMBER_OF_BYTES : 199988919
        _STATISTICS_WRITING_APP: mkvpropedit v66.0.0 ('Josie') 64-bit
        _STATISTICS_WRITING_DATE_UTC: 2025-06-03 12:06:37
        _STATISTICS_TAGS: BPS DURATION NUMBER_OF_FRAMES NUMBER_OF_BYTES
  Stream #0:1: Audio: aac (LC), 48000 Hz, stereo, fltp (default)
      Metadata:
        HANDLER_NAME    : SoundHandler
        VENDOR_ID       : [0][0][0][0]
        ENCODER         : Lavc61.19.100 aac
        BPS             : 193782
        DURATION        : 00:23:56.672000000
        NUMBER_OF_FRAMES: 67345
        NUMBER_OF_BYTES : 34800250
        _STATISTICS_WRITING_APP: mkvpropedit v66.0.0 ('Josie') 64-bit
        _STATISTICS_WRITING_DATE_UTC: 2025-06-03 12:06:37
        _STATISTICS_TAGS: BPS DURATION NUMBER_OF_FRAMES NUMBER_OF_BYTES
Input #1, mov,mp4,m4a,3gp,3g2,mj2, from 'G:\Аниме\Онгоинги\!_36_Осень_2024\DreamCast\Пуниру - милая слизь\[DC] Puniru wa Kawaii Slime - 03_Telegram.mp4':
  Metadata:
    major_brand     : isom
    minor_version   : 512
    compatible_brands: isomiso2avc1mp41
    encoder         : Lavf61.1.100
  Duration: 00:23:56.64, start: 0.000000, bitrate: 3740 kb/s
  Stream #1:0[0x1](und): Video: h264 (High) (avc1 / 0x31637661), yuv420p(tv, bt709, progressive), 1920x1080 [SAR 1:1 DAR 16:9], 3592 kb/s, 23.98 fps, 23.98 tbr, 24k tbn (default)
      Metadata:
        handler_name    : VideoHandler
        vendor_id       : [0][0][0][0]
        encoder         : Lavc61.3.100 h264_qsv
  Stream #1:1[0x2](und): Audio: aac (HE-AACv2) (mp4a / 0x6134706D), 48000 Hz, stereo, fltp, 144 kb/s (default)
      Metadata:
        handler_name    : SoundHandler
        vendor_id       : [0][0][0][0]
Stream mapping:
  Stream #0:0 (hevc) -> settb:default
  Stream #1:0 (h264) -> settb:default
  ssim:default -> Stream #0:0 (wrapped_avframe)
  Stream #0:1 -> #0:1 (aac (native) -> pcm_s16le (native))
Output #0, null, to 'pipe:':
  Metadata:
    COMPATIBLE_BRANDS: isomiso2avc1mp41
    MAJOR_BRAND     : isom
    MINOR_VERSION   : 512
    encoder         : Lavf61.7.100
  Stream #0:0: Video: wrapped_avframe, yuv420p10le(tv, bt709, progressive), 1920x1080 [SAR 1:1 DAR 16:9], q=2-31, 200 kb/s, 23.98 fps, 23.98 tbn
      Metadata:
        encoder         : Lavc61.19.100 wrapped_avframe
  Stream #0:1: Audio: pcm_s16le, 48000 Hz, stereo, s16, 1536 kb/s (default)
      Metadata:
        HANDLER_NAME    : SoundHandler
        VENDOR_ID       : [0][0][0][0]
        _STATISTICS_TAGS: BPS DURATION NUMBER_OF_FRAMES NUMBER_OF_BYTES
        BPS             : 193782
        DURATION        : 00:23:56.672000000
        NUMBER_OF_FRAMES: 67345
        NUMBER_OF_BYTES : 34800250
        _STATISTICS_WRITING_APP: mkvpropedit v66.0.0 ('Josie') 64-bit
        _STATISTICS_WRITING_DATE_UTC: 2025-06-03 12:06:37
        encoder         : Lavc61.19.100 pcm_s16le
frame=  174 fps=0.0 q=-0.0 size=N/A time=00:00:07.25 bitrate=N/A speed=13.9x    frame=  389 fps=377 q=-0.0 size=N/A time=00:00:16.22 bitrate=N/A speed=15.7x    frame=  566 fps=365 q=-0.0 size=N/A time=00:00:23.60 bitrate=N/A speed=15.2x    frame=  765 fps=371 q=-0.0 size=N/A time=00:00:31.90 bitrate=N/A speed=15.5x    frame= 1000 fps=386 q=-0.0 size=N/A time=00:00:41.70 bitrate=N/A speed=16.1x    frame= 1234 fps=396 q=-0.0 size=N/A time=00:00:51.46 bitrate=N/A speed=16.5x    frame= 1429 fps=394 q=-0.0 size=N/A time=00:00:59.60 bitrate=N/A speed=16.4x    frame= 1574 fps=380 q=-0.0 size=N/A time=00:01:05.64 bitrate=N/A speed=15.9x    frame= 1753 fps=376 q=-0.0 size=N/A time=00:01:13.11 bitrate=N/A speed=15.7x    frame= 1952 fps=378 q=-0.0 size=N/A time=00:01:21.41 bitrate=N/A speed=15.8x    frame= 2160 fps=379 q=-0.0 size=N/A time=00:01:30.09 bitrate=N/A speed=15.8x    frame= 2404 fps=387 q=-0.0 size=N/A time=00:01:40.26 bitrate=N/A speed=16.2x    frame= 2636 fps=393 q=-0.0 size=N/A time=00:01:49.94 bitrate=N/A speed=16.4x    frame= 2889 fps=399 q=-0.0 size=N/A time=00:02:00.49 bitrate=N/A speed=16.6x    frame= 3145 fps=406 q=-0.0 size=N/A time=00:02:11.17 bitrate=N/A speed=16.9x    frame= 3410 fps=413 q=-0.0 size=N/A time=00:02:22.22 bitrate=N/A speed=17.2x    frame= 3657 fps=416 q=-0.0 size=N/A time=00:02:32.52 bitrate=N/A speed=17.4x    frame= 3863 fps=416 q=-0.0 size=N/A time=00:02:41.11 bitrate=N/A speed=17.3x    frame= 4105 fps=418 q=-0.0 size=N/A time=00:02:51.21 bitrate=N/A speed=17.4x    frame= 4386 fps=424 q=-0.0 size=N/A time=00:03:02.93 bitrate=N/A speed=17.7x    frame= 4585 fps=422 q=-0.0 size=N/A time=00:03:11.23 bitrate=N/A speed=17.6x    frame= 4841 fps=426 q=-0.0 size=N/A time=00:03:21.91 bitrate=N/A speed=17.8x    frame= 5105 fps=429 q=-0.0 size=N/A time=00:03:32.92 bitrate=N/A speed=17.9x    frame= 5362 fps=432 q=-0.0 size=N/A time=00:03:43.64 bitrate=N/A speed=  18x    frame= 5606 fps=434 q=-0.0 size=N/A time=00:03:53.81 bitrate=N/A speed=18.1x    frame= 5844 fps=435 q=-0.0 size=N/A time=00:04:03.74 bitrate=N/A speed=18.1x    frame= 6132 fps=439 q=-0.0 size=N/A time=00:04:15.75 bitrate=N/A speed=18.3x    frame= 6359 fps=440 q=-0.0 size=N/A time=00:04:25.22 bitrate=N/A speed=18.3x    frame= 6617 fps=441 q=-0.0 size=N/A time=00:04:35.98 bitrate=N/A speed=18.4x    frame= 6881 fps=444 q=-0.0 size=N/A time=00:04:46.99 bitrate=N/A speed=18.5x    frame= 7161 fps=447 q=-0.0 size=N/A time=00:04:58.67 bitrate=N/A speed=18.6x    frame= 7426 fps=449 q=-0.0 size=N/A time=00:05:09.72 bitrate=N/A speed=18.7x    frame= 7675 fps=450 q=-0.0 size=N/A time=00:05:20.11 bitrate=N/A speed=18.8x    frame= 7905 fps=450 q=-0.0 size=N/A time=00:05:29.70 bitrate=N/A speed=18.8x    frame= 8133 fps=450 q=-0.0 size=N/A time=00:05:39.21 bitrate=N/A speed=18.8x    frame= 8365 fps=449 q=-0.0 size=N/A time=00:05:48.89 bitrate=N/A speed=18.7x    frame= 8582 fps=449 q=-0.0 size=N/A time=00:05:57.94 bitrate=N/A speed=18.7x    frame= 8851 fps=450 q=-0.0 size=N/A time=00:06:09.16 bitrate=N/A speed=18.8x    frame= 9100 fps=451 q=-0.0 size=N/A time=00:06:19.54 bitrate=N/A speed=18.8x    frame= 9364 fps=453 q=-0.0 size=N/A time=00:06:30.55 bitrate=N/A speed=18.9x    frame= 9637 fps=455 q=-0.0 size=N/A time=00:06:41.94 bitrate=N/A speed=  19x    frame= 9926 fps=457 q=-0.0 size=N/A time=00:06:53.99 bitrate=N/A speed=19.1x    frame=10194 fps=459 q=-0.0 size=N/A time=00:07:05.17 bitrate=N/A speed=19.1x    frame=10447 fps=460 q=-0.0 size=N/A time=00:07:15.72 bitrate=N/A speed=19.2x    frame=10683 fps=459 q=-0.0 size=N/A time=00:07:25.57 bitrate=N/A speed=19.2x    frame=10960 fps=461 q=-0.0 size=N/A time=00:07:37.12 bitrate=N/A speed=19.2x    frame=11195 fps=461 q=-0.0 size=N/A time=00:07:46.92 bitrate=N/A speed=19.2x    frame=11416 fps=460 q=-0.0 size=N/A time=00:07:56.14 bitrate=N/A speed=19.2x    frame=11696 fps=462 q=-0.0 size=N/A time=00:08:07.82 bitrate=N/A speed=19.3x    frame=11974 fps=464 q=-0.0 size=N/A time=00:08:19.41 bitrate=N/A speed=19.3x    frame=12225 fps=464 q=-0.0 size=N/A time=00:08:29.88 bitrate=N/A speed=19.4x    frame=12470 fps=464 q=-0.0 size=N/A time=00:08:40.10 bitrate=N/A speed=19.4x    frame=12728 fps=465 q=-0.0 size=N/A time=00:08:50.86 bitrate=N/A speed=19.4x    frame=12980 fps=465 q=-0.0 size=N/A time=00:09:01.37 bitrate=N/A speed=19.4x    frame=13225 fps=466 q=-0.0 size=N/A time=00:09:11.59 bitrate=N/A speed=19.4x    frame=13487 fps=466 q=-0.0 size=N/A time=00:09:22.52 bitrate=N/A speed=19.4x    frame=13725 fps=466 q=-0.0 size=N/A time=00:09:32.44 bitrate=N/A speed=19.4x    frame=13925 fps=465 q=-0.0 size=N/A time=00:09:40.78 bitrate=N/A speed=19.4x    frame=14148 fps=464 q=-0.0 size=N/A time=00:09:50.08 bitrate=N/A speed=19.4x    frame=14398 fps=465 q=-0.0 size=N/A time=00:10:00.51 bitrate=N/A speed=19.4x    frame=14624 fps=464 q=-0.0 size=N/A time=00:10:09.94 bitrate=N/A speed=19.4x    frame=14884 fps=465 q=-0.0 size=N/A time=00:10:20.78 bitrate=N/A speed=19.4x    frame=15090 fps=464 q=-0.0 size=N/A time=00:10:29.37 bitrate=N/A speed=19.3x    frame=15338 fps=464 q=-0.0 size=N/A time=00:10:39.72 bitrate=N/A speed=19.4x    frame=15608 fps=465 q=-0.0 size=N/A time=00:10:50.98 bitrate=N/A speed=19.4x    frame=15870 fps=466 q=-0.0 size=N/A time=00:11:01.91 bitrate=N/A speed=19.4x    frame=16146 fps=467 q=-0.0 size=N/A time=00:11:13.42 bitrate=N/A speed=19.5x    frame=16364 fps=466 q=-0.0 size=N/A time=00:11:22.51 bitrate=N/A speed=19.4x    frame=16594 fps=466 q=-0.0 size=N/A time=00:11:32.10 bitrate=N/A speed=19.4x    frame=16818 fps=465 q=-0.0 size=N/A time=00:11:41.45 bitrate=N/A speed=19.4x    frame=17049 fps=465 q=-0.0 size=N/A time=00:11:51.08 bitrate=N/A speed=19.4x    frame=17298 fps=465 q=-0.0 size=N/A time=00:12:01.47 bitrate=N/A speed=19.4x    frame=17548 fps=466 q=-0.0 size=N/A time=00:12:11.89 bitrate=N/A speed=19.4x    frame=17805 fps=466 q=-0.0 size=N/A time=00:12:22.61 bitrate=N/A speed=19.4x    frame=18083 fps=467 q=-0.0 size=N/A time=00:12:34.21 bitrate=N/A speed=19.5x    frame=18352 fps=468 q=-0.0 size=N/A time=00:12:45.43 bitrate=N/A speed=19.5x    frame=18613 fps=468 q=-0.0 size=N/A time=00:12:56.31 bitrate=N/A speed=19.5x    frame=18873 fps=469 q=-0.0 size=N/A time=00:13:07.16 bitrate=N/A speed=19.5x    frame=19137 fps=469 q=-0.0 size=N/A time=00:13:18.17 bitrate=N/A speed=19.6x    frame=19397 fps=470 q=-0.0 size=N/A time=00:13:29.01 bitrate=N/A speed=19.6x    frame=19639 fps=470 q=-0.0 size=N/A time=00:13:39.10 bitrate=N/A speed=19.6x    frame=19898 fps=470 q=-0.0 size=N/A time=00:13:49.91 bitrate=N/A speed=19.6x    frame=20131 fps=470 q=-0.0 size=N/A time=00:13:59.63 bitrate=N/A speed=19.6x    frame=20360 fps=469 q=-0.0 size=N/A time=00:14:09.18 bitrate=N/A speed=19.6x    frame=20626 fps=470 q=-0.0 size=N/A time=00:14:20.27 bitrate=N/A speed=19.6x    frame=20903 fps=471 q=-0.0 size=N/A time=00:14:31.82 bitrate=N/A speed=19.6x    frame=21167 fps=471 q=-0.0 size=N/A time=00:14:42.84 bitrate=N/A speed=19.7x    frame=21431 fps=472 q=-0.0 size=N/A time=00:14:53.85 bitrate=N/A speed=19.7x    frame=21714 fps=473 q=-0.0 size=N/A time=00:15:05.65 bitrate=N/A speed=19.7x    frame=21981 fps=473 q=-0.0 size=N/A time=00:15:16.79 bitrate=N/A speed=19.7x    frame=22212 fps=473 q=-0.0 size=N/A time=00:15:26.42 bitrate=N/A speed=19.7x    frame=22464 fps=473 q=-0.0 size=N/A time=00:15:36.93 bitrate=N/A speed=19.7x    frame=22745 fps=474 q=-0.0 size=N/A time=00:15:48.65 bitrate=N/A speed=19.8x    frame=23010 fps=474 q=-0.0 size=N/A time=00:15:59.70 bitrate=N/A speed=19.8x    frame=23277 fps=475 q=-0.0 size=N/A time=00:16:10.84 bitrate=N/A speed=19.8x    frame=23501 fps=474 q=-0.0 size=N/A time=00:16:20.18 bitrate=N/A speed=19.8x    frame=23728 fps=474 q=-0.0 size=N/A time=00:16:29.65 bitrate=N/A speed=19.8x    frame=23993 fps=474 q=-0.0 size=N/A time=00:16:40.70 bitrate=N/A speed=19.8x    frame=24258 fps=475 q=-0.0 size=N/A time=00:16:51.76 bitrate=N/A speed=19.8x    frame=24518 fps=475 q=-0.0 size=N/A time=00:17:02.60 bitrate=N/A speed=19.8x    frame=24791 fps=475 q=-0.0 size=N/A time=00:17:13.99 bitrate=N/A speed=19.8x    frame=25064 fps=476 q=-0.0 size=N/A time=00:17:25.37 bitrate=N/A speed=19.8x    frame=25322 fps=476 q=-0.0 size=N/A time=00:17:36.13 bitrate=N/A speed=19.9x    frame=25533 fps=475 q=-0.0 size=N/A time=00:17:44.93 bitrate=N/A speed=19.8x    frame=25779 fps=475 q=-0.0 size=N/A time=00:17:55.19 bitrate=N/A speed=19.8x    frame=26025 fps=475 q=-0.0 size=N/A time=00:18:05.45 bitrate=N/A speed=19.8x    frame=26295 fps=476 q=-0.0 size=N/A time=00:18:16.72 bitrate=N/A speed=19.8x    frame=26536 fps=476 q=-0.0 size=N/A time=00:18:26.77 bitrate=N/A speed=19.8x    frame=26775 fps=476 q=-0.0 size=N/A time=00:18:36.74 bitrate=N/A speed=19.8x    frame=27000 fps=475 q=-0.0 size=N/A time=00:18:46.12 bitrate=N/A speed=19.8x    frame=27219 fps=475 q=-0.0 size=N/A time=00:18:55.25 bitrate=N/A speed=19.8x    frame=27445 fps=475 q=-0.0 size=N/A time=00:19:04.68 bitrate=N/A speed=19.8x    frame=27677 fps=474 q=-0.0 size=N/A time=00:19:14.36 bitrate=N/A speed=19.8x    frame=27919 fps=474 q=-0.0 size=N/A time=00:19:24.45 bitrate=N/A speed=19.8x    frame=28162 fps=474 q=-0.0 size=N/A time=00:19:34.59 bitrate=N/A speed=19.8x    frame=28419 fps=474 q=-0.0 size=N/A time=00:19:45.30 bitrate=N/A speed=19.8x    frame=28669 fps=475 q=-0.0 size=N/A time=00:19:55.73 bitrate=N/A speed=19.8x    frame=28941 fps=475 q=-0.0 size=N/A time=00:20:07.08 bitrate=N/A speed=19.8x    frame=29189 fps=475 q=-0.0 size=N/A time=00:20:17.42 bitrate=N/A speed=19.8x    frame=29439 fps=475 q=-0.0 size=N/A time=00:20:27.85 bitrate=N/A speed=19.8x    frame=29673 fps=475 q=-0.0 size=N/A time=00:20:37.61 bitrate=N/A speed=19.8x    frame=29912 fps=475 q=-0.0 size=N/A time=00:20:47.57 bitrate=N/A speed=19.8x    frame=30117 fps=474 q=-0.0 size=N/A time=00:20:56.12 bitrate=N/A speed=19.8x    frame=30364 fps=474 q=-0.0 size=N/A time=00:21:06.43 bitrate=N/A speed=19.8x    frame=30635 fps=475 q=-0.0 size=N/A time=00:21:17.73 bitrate=N/A speed=19.8x    frame=30910 fps=475 q=-0.0 size=N/A time=00:21:29.20 bitrate=N/A speed=19.8x    frame=31167 fps=475 q=-0.0 size=N/A time=00:21:39.92 bitrate=N/A speed=19.8x    frame=31438 fps=476 q=-0.0 size=N/A time=00:21:51.22 bitrate=N/A speed=19.8x    frame=31703 fps=476 q=-0.0 size=N/A time=00:22:02.27 bitrate=N/A speed=19.8x    frame=31949 fps=476 q=-0.0 size=N/A time=00:22:12.53 bitrate=N/A speed=19.9x    frame=32155 fps=475 q=-0.0 size=N/A time=00:22:21.13 bitrate=N/A speed=19.8x    frame=32369 fps=475 q=-0.0 size=N/A time=00:22:30.05 bitrate=N/A speed=19.8x    frame=32584 fps=474 q=-0.0 size=N/A time=00:22:39.02 bitrate=N/A speed=19.8x    frame=32768 fps=474 q=-0.0 size=N/A time=00:22:46.69 bitrate=N/A speed=19.8x    frame=32970 fps=473 q=-0.0 size=N/A time=00:22:55.12 bitrate=N/A speed=19.7x    frame=33210 fps=473 q=-0.0 size=N/A time=00:23:05.13 bitrate=N/A speed=19.7x    frame=33418 fps=472 q=-0.0 size=N/A time=00:23:13.80 bitrate=N/A speed=19.7x    frame=33603 fps=472 q=-0.0 size=N/A time=00:23:21.52 bitrate=N/A speed=19.7x    frame=33758 fps=470 q=-0.0 size=N/A time=00:23:27.98 bitrate=N/A speed=19.6x    frame=33947 fps=470 q=-0.0 size=N/A time=00:23:35.87 bitrate=N/A speed=19.6x    frame=34154 fps=469 q=-0.0 size=N/A time=00:23:44.50 bitrate=N/A speed=19.6x    frame=34372 fps=469 q=-0.0 size=N/A time=00:23:53.59 bitrate=N/A speed=19.6x    [Parsed_ssim_10 @ 000002a56a4daa80] SSIM Y:0.994679 (22.739707) U:0.993002 (21.550229) V:0.992738 (21.389362) All:0.994076 (22.273612)
[out#0/null @ 000002a55d414440] video:14799KiB audio:269380KiB subtitle:0KiB other streams:0KiB global headers:0KiB muxing overhead: unknown
frame=34442 fps=469 q=-0.0 Lsize=N/A time=00:23:56.51 bitrate=N/A speed=19.6x    
